<?xml version="1.0" encoding="UTF-8"?>
<svg id="Layer_1" data-name="Layer 1" xmlns="http://www.w3.org/2000/svg" viewBox="0 0 913.37 465.06">
  <path d="M865.75,332.79c-47.73,49.43-119.6,81.33-184.86,100.51-67.86,19.94-138.69,29.4-209.47,31.26-.06-.61.98-.64,1.44-.77,42.47-12.12,86.12-19.29,128.29-32.6,64.53-20.36,147.16-58.26,184.19-117.48,38.38-61.38,10.97-117.8-41.01-158-50.87-39.35-121.97-61.9-184.74-73.49-9.17-1.69-21-4.28-30.09-4.9-13.83-.94-36.24,11.97-46.41,21.06-8.63,7.71-25.34,28.38-25.37,40.22-.02,11.27.59,22.88.85,34.17.67,28.82-2.75,55.24,33.58,58.53,22.3,2.02,46.63-.53,69.2.79l8.23.82c-17.88.61-36.29-.8-54.12-.01-8.61.38-19.96,1.23-28.42,2.55-19.72,3.07-27.71,13.3-28.9,33.04-.03,54.04-.23,108.2-.8,162.08-.1,9.3,1.06,19.55.43,28.59-.05.79-.52,4.48-1.1,4.62-5.58.63-11.21.57-16.81.8-74.77,3.03-158.29-8.21-229.39-31.67-30.05-9.92-56.27-23.47-84.03-38.24C55.4,356.87-22.42,287.38,6.01,197.32,34.13,108.22,149.17,55.01,232.08,30.83,300.72,10.8,372.97,1.34,444.46.06l-46.73,12.59c-73.48,14.85-150.38,37.45-212.04,81.18s-103.67,108.88-52.72,178.85c46.89,64.4,150.25,97.53,225.74,110.92,8.59,1.52,23.81,5.01,31.86,3.55,26.07-4.73,54.26-27.88,63.46-52.78,1.75-4.75,1.7-5.92,1.69-10.75-.04-17.41.46-35.87-.77-53.12-2.12-29.56-13.88-36.23-42.03-37.2-19.84-.69-40.08.24-59.97-.37-.86-.03-1.62-.38-2.4-.41-1.74-.08-3.49.07-5.23,0-.49-.02-1.5.3-1.4-.4h54.52c28.5-2.97,55.12,1.07,57.32-35.58-.02-54.18.31-108.46.8-162.48.08-9.15-1.06-19.29-.43-28.18.05-.7.6-4.39.88-4.55,10.74-1.11,21.54-1.08,32.34-1.25,67.33-1.04,136.81,8.68,201.21,28.03,35.56,10.68,67.58,25.92,100.12,43.47,47.03,25.36,97.46,64.71,115.58,116.89,19.11,55.04-2.22,104.69-40.49,144.33Z"/>
</svg>